<?xml version="1.0" standalone="yes"?>

<svg version="1.1" viewBox="0.0 0.0 200.0 200.0" fill="none" stroke="none" stroke-linecap="square" stroke-miterlimit="10" xmlns="http://www.w3.org/2000/svg" xmlns:xlink="http://www.w3.org/1999/xlink"><clipPath id="p.0"><path d="m0 0l200.0 0l0 200.0l-200.0 0l0 -200.0z" clip-rule="nonzero"></path></clipPath><g clip-path="url(#p.0)"><path fill="#000000" fill-opacity="0.0" d="m0 0l200.0 0l0 200.0l-200.0 0z" fill-rule="nonzero"></path><path fill="#000000" d="m12.622047 24.456694l177.13385 0l0 30.771654l-177.13385 0z" fill-rule="nonzero"></path><path stroke="#000000" stroke-width="1.0" stroke-linejoin="round" stroke-linecap="butt" d="m12.622047 24.456694l177.13385 0l0 30.771654l-177.13385 0z" fill-rule="nonzero"></path><path fill="#000000" d="m12.622047 84.614174l177.13385 0l0 30.771652l-177.13385 0z" fill-rule="nonzero"></path><path stroke="#000000" stroke-width="1.0" stroke-linejoin="round" stroke-linecap="butt" d="m12.622047 84.614174l177.13385 0l0 30.771652l-177.13385 0z" fill-rule="nonzero"></path><path fill="#000000" d="m11.433071 144.77165l177.13385 0l0 30.771652l-177.13385 0z" fill-rule="nonzero"></path><path stroke="#000000" stroke-width="1.0" stroke-linejoin="round" stroke-linecap="butt" d="m11.433071 144.77165l177.13385 0l0 30.771652l-177.13385 0z" fill-rule="nonzero"></path></g></svg>

